<mxfile host="app.diagrams.net" modified="2023-02-10T18:10:15.731Z" agent="5.0 (X11; Linux x86_64) AppleWebKit/537.36 (KHTML, like Gecko) Chrome/109.0.0.0 Safari/537.36" etag="2BwzxAlnraxXorWywV9k" version="20.8.5" type="github">
  <diagram name="Page-1" id="2cc2dc42-3aac-f2a9-1cec-7a8b7cbee084">
    <mxGraphModel dx="1434" dy="801" grid="1" gridSize="10" guides="1" tooltips="1" connect="1" arrows="1" fold="1" page="1" pageScale="1" pageWidth="1100" pageHeight="850" background="none" math="0" shadow="0">
      <root>
        <mxCell id="0" />
        <mxCell id="1" parent="0" />
        <mxCell id="7026571954dc6520-1" value="" style="strokeWidth=1;shadow=0;dashed=0;align=center;html=1;shape=mxgraph.mockup.containers.browserWindow;rSize=0;strokeColor=#666666;mainText=,;recursiveResize=0;rounded=0;labelBackgroundColor=none;fontFamily=Verdana;fontSize=12" parent="1" vertex="1">
          <mxGeometry x="25" y="15" width="1050" height="820" as="geometry" />
        </mxCell>
        <mxCell id="7026571954dc6520-33" value="" style="whiteSpace=wrap;html=1;rounded=0;shadow=0;labelBackgroundColor=none;strokeWidth=1;fontFamily=Verdana;fontSize=12;align=center;verticalAlign=top;" parent="7026571954dc6520-1" vertex="1">
          <mxGeometry x="780" y="640" width="260" height="170" as="geometry" />
        </mxCell>
        <mxCell id="7026571954dc6520-2" value="Artisanonli..." style="strokeWidth=1;shadow=0;dashed=0;align=center;html=1;shape=mxgraph.mockup.containers.anchor;fontSize=17;fontColor=#666666;align=left;" parent="7026571954dc6520-1" vertex="1">
          <mxGeometry x="60" y="12" width="110" height="26" as="geometry" />
        </mxCell>
        <mxCell id="7026571954dc6520-3" value="https://www.artisanonlineshop.com" style="strokeWidth=1;shadow=0;dashed=0;align=center;html=1;shape=mxgraph.mockup.containers.anchor;rSize=0;fontSize=17;fontColor=#666666;align=left;" parent="7026571954dc6520-1" vertex="1">
          <mxGeometry x="130" y="60" width="250" height="26" as="geometry" />
        </mxCell>
        <mxCell id="7026571954dc6520-4" value="Art-is-an online shop" style="text;html=1;points=[];align=left;verticalAlign=top;spacingTop=-4;fontSize=30;fontFamily=Verdana" parent="7026571954dc6520-1" vertex="1">
          <mxGeometry x="30" y="140" width="340" height="50" as="geometry" />
        </mxCell>
        <mxCell id="7026571954dc6520-6" value="Products" style="text;html=1;points=[];align=left;verticalAlign=top;spacingTop=-4;fontSize=15;fontFamily=Verdana" parent="7026571954dc6520-1" vertex="1">
          <mxGeometry x="540" y="140" width="170" height="30" as="geometry" />
        </mxCell>
        <mxCell id="7026571954dc6520-7" value="Browse the products available in the site" style="text;html=1;points=[];align=left;verticalAlign=top;spacingTop=-4;fontSize=12;fontFamily=Verdana;whiteSpace=wrap;" parent="7026571954dc6520-1" vertex="1">
          <mxGeometry x="540" y="170" width="240" height="40" as="geometry" />
        </mxCell>
        <mxCell id="7026571954dc6520-8" value="In my region" style="text;html=1;points=[];align=left;verticalAlign=top;spacingTop=-4;fontSize=15;fontFamily=Verdana" parent="7026571954dc6520-1" vertex="1">
          <mxGeometry x="540" y="230" width="170" height="30" as="geometry" />
        </mxCell>
        <mxCell id="7026571954dc6520-9" value="Search for local artisans and collect the items in situ" style="text;html=1;points=[];align=left;verticalAlign=top;spacingTop=-4;fontSize=12;fontFamily=Verdana;whiteSpace=wrap;" parent="7026571954dc6520-1" vertex="1">
          <mxGeometry x="540" y="260" width="240" height="40" as="geometry" />
        </mxCell>
        <mxCell id="7026571954dc6520-10" value="Vendors" style="text;html=1;points=[];align=left;verticalAlign=top;spacingTop=-4;fontSize=15;fontFamily=Verdana" parent="7026571954dc6520-1" vertex="1">
          <mxGeometry x="800" y="140" width="170" height="30" as="geometry" />
        </mxCell>
        <mxCell id="7026571954dc6520-11" value="Browse the vendors and find the product that they sell" style="text;html=1;points=[];align=left;verticalAlign=top;spacingTop=-4;fontSize=12;fontFamily=Verdana;whiteSpace=wrap;" parent="7026571954dc6520-1" vertex="1">
          <mxGeometry x="800" y="170" width="240" height="40" as="geometry" />
        </mxCell>
        <mxCell id="7026571954dc6520-12" value="Search" style="text;html=1;points=[];align=left;verticalAlign=top;spacingTop=-4;fontSize=15;fontFamily=Verdana" parent="7026571954dc6520-1" vertex="1">
          <mxGeometry x="800" y="230" width="170" height="30" as="geometry" />
        </mxCell>
        <mxCell id="7026571954dc6520-14" value="Search" style="strokeWidth=1;shadow=0;dashed=0;align=center;html=1;shape=mxgraph.mockup.forms.searchBox;strokeColor=#999999;mainText=;strokeColor2=#008cff;fontColor=#666666;fontSize=17;align=left;spacingLeft=3;rounded=0;labelBackgroundColor=none;" parent="7026571954dc6520-1" vertex="1">
          <mxGeometry x="800" y="260" width="220" height="30" as="geometry" />
        </mxCell>
        <mxCell id="7026571954dc6520-15" value="" style="verticalLabelPosition=bottom;shadow=0;dashed=0;align=center;html=1;verticalAlign=top;strokeWidth=1;shape=mxgraph.mockup.markup.line;strokeColor=#999999;rounded=0;labelBackgroundColor=none;fillColor=#ffffff;fontFamily=Verdana;fontSize=12;fontColor=#000000;" parent="7026571954dc6520-1" vertex="1">
          <mxGeometry y="310" width="1050" height="20" as="geometry" />
        </mxCell>
        <mxCell id="7026571954dc6520-17" value="We are a new company that wants to bring online shopping to local artisans. The final results will be the&amp;nbsp;&lt;br&gt;same as selling or buying something at your local store, only more quicker.&lt;br&gt;&lt;br&gt;You also have the possibility of scrolling through different products and artisans to find what you need.&lt;br&gt;&lt;br&gt;Are you also an artisan interested in joining the new field of online shopping, just see the section mentioned on the right or see &lt;font style=&quot;font-weight: bold;&quot; color=&quot;#0d15ff&quot;&gt;this&lt;/font&gt;&lt;font style=&quot;&quot;&gt;.&lt;br&gt;&lt;/font&gt;&lt;br&gt;Do you need to chat with a vendor to see something more about the product, to talk about their shop, to expand your business, use our chat system? After you log in as a customer or a vendor, just search for the account of the person that you want to contact and wait for a response!" style="text;spacingTop=-5;whiteSpace=wrap;html=1;align=left;fontSize=12;fontFamily=Helvetica;fillColor=none;strokeColor=none;rounded=0;shadow=1;labelBackgroundColor=none;" parent="7026571954dc6520-1" vertex="1">
          <mxGeometry x="20" y="370" width="570" height="240" as="geometry" />
        </mxCell>
        <mxCell id="7026571954dc6520-18" value="Subscribe to the newsletter" style="strokeWidth=1;shadow=0;dashed=0;align=center;html=1;shape=mxgraph.mockup.buttons.button;strokeColor=#666666;mainText=;buttonStyle=round;fontSize=17;fontStyle=0;fillColor=none;whiteSpace=wrap;rounded=0;labelBackgroundColor=none;" parent="7026571954dc6520-1" vertex="1">
          <mxGeometry x="790" y="360" width="220" height="30" as="geometry" />
        </mxCell>
        <mxCell id="7026571954dc6520-19" value="Log in as a customer" style="strokeWidth=1;shadow=0;dashed=0;align=center;html=1;shape=mxgraph.mockup.buttons.button;strokeColor=#666666;mainText=;buttonStyle=round;fontSize=17;fontStyle=0;fillColor=none;whiteSpace=wrap;rounded=0;labelBackgroundColor=none;" parent="7026571954dc6520-1" vertex="1">
          <mxGeometry x="790" y="405" width="220" height="30" as="geometry" />
        </mxCell>
        <mxCell id="7026571954dc6520-20" value="To become an artisan and sell your product on this site see &lt;b&gt;&lt;font color=&quot;#2b00ff&quot;&gt;become vendor&lt;/font&gt;&lt;/b&gt;" style="text;html=1;points=[];align=left;verticalAlign=top;spacingTop=-4;fontSize=12;fontFamily=Verdana;whiteSpace=wrap;" parent="7026571954dc6520-1" vertex="1">
          <mxGeometry x="790" y="450" width="240" height="40" as="geometry" />
        </mxCell>
        <mxCell id="7026571954dc6520-21" value="" style="verticalLabelPosition=bottom;shadow=0;dashed=0;align=center;html=1;verticalAlign=top;strokeWidth=1;shape=mxgraph.mockup.markup.line;strokeColor=#999999;rounded=0;labelBackgroundColor=none;fillColor=#ffffff;fontFamily=Verdana;fontSize=12;fontColor=#000000;" parent="7026571954dc6520-1" vertex="1">
          <mxGeometry y="580" width="1050" height="20" as="geometry" />
        </mxCell>
        <mxCell id="7026571954dc6520-22" value="" style="verticalLabelPosition=bottom;shadow=0;dashed=0;align=center;html=1;verticalAlign=top;strokeWidth=1;shape=mxgraph.mockup.graphics.simpleIcon;strokeColor=#999999;fillColor=#ffffff;rounded=0;labelBackgroundColor=none;fontFamily=Verdana;fontSize=12;fontColor=#000000;" parent="7026571954dc6520-1" vertex="1">
          <mxGeometry x="15" y="610" width="200" height="200" as="geometry" />
        </mxCell>
        <mxCell id="7026571954dc6520-31" value="Highlighted reviews and latest product sold" style="text;html=1;points=[];align=left;verticalAlign=top;spacingTop=-4;fontSize=15;fontFamily=Verdana" parent="7026571954dc6520-1" vertex="1">
          <mxGeometry x="280" y="610" width="170" height="30" as="geometry" />
        </mxCell>
        <mxCell id="7026571954dc6520-32" value="Products in evidence" style="text;html=1;points=[];align=left;verticalAlign=top;spacingTop=-4;fontSize=15;fontFamily=Verdana" parent="7026571954dc6520-1" vertex="1">
          <mxGeometry x="780" y="610" width="170" height="30" as="geometry" />
        </mxCell>
        <mxCell id="JiKzyvnLmBaQL2zN5SzK-1" value="&lt;font style=&quot;font-size: 15px;&quot; color=&quot;#000000&quot;&gt;Presenting the new Online experience for local artisans and expanding the reach of your product to international shopping&lt;/font&gt;" style="text;html=1;strokeColor=none;fillColor=none;align=center;verticalAlign=middle;whiteSpace=wrap;rounded=0;fontColor=#2B00FF;" vertex="1" parent="7026571954dc6520-1">
          <mxGeometry x="20" y="320" width="540" height="40" as="geometry" />
        </mxCell>
        <mxCell id="JiKzyvnLmBaQL2zN5SzK-3" value="" style="endArrow=none;html=1;rounded=0;fontSize=15;fontColor=#000000;exitX=0.719;exitY=0.52;exitDx=0;exitDy=0;exitPerimeter=0;entryX=0.72;entryY=0.54;entryDx=0;entryDy=0;entryPerimeter=0;strokeColor=#969696;" edge="1" parent="7026571954dc6520-1" source="7026571954dc6520-15" target="7026571954dc6520-21">
          <mxGeometry width="50" height="50" relative="1" as="geometry">
            <mxPoint x="500" y="600" as="sourcePoint" />
            <mxPoint x="760" y="590" as="targetPoint" />
          </mxGeometry>
        </mxCell>
        <mxCell id="JiKzyvnLmBaQL2zN5SzK-4" value="" style="verticalLabelPosition=bottom;shadow=0;dashed=0;align=center;html=1;verticalAlign=top;strokeWidth=1;shape=mxgraph.mockup.markup.line;strokeColor=#999999;rounded=0;labelBackgroundColor=none;fillColor=#ffffff;fontFamily=Verdana;fontSize=12;fontColor=#000000;" vertex="1" parent="7026571954dc6520-1">
          <mxGeometry x="760" y="490" width="290" height="20" as="geometry" />
        </mxCell>
        <mxCell id="JiKzyvnLmBaQL2zN5SzK-5" value="&lt;font style=&quot;font-size: 11px;&quot;&gt;Try our chat to know the vendors and contact them about the products&lt;/font&gt;" style="text;html=1;strokeColor=none;fillColor=none;align=center;verticalAlign=middle;whiteSpace=wrap;rounded=0;fontSize=15;fontColor=#000000;" vertex="1" parent="7026571954dc6520-1">
          <mxGeometry x="760" y="500" width="290" height="30" as="geometry" />
        </mxCell>
        <mxCell id="JiKzyvnLmBaQL2zN5SzK-6" value="" style="dashed=0;aspect=fixed;verticalLabelPosition=bottom;verticalAlign=top;align=center;shape=mxgraph.gmdl.chat;strokeColor=none;fillColor=#737373;shadow=0;sketch=0;fontSize=11;fontColor=#000000;" vertex="1" parent="7026571954dc6520-1">
          <mxGeometry x="885" y="540" width="40" height="40" as="geometry" />
        </mxCell>
        <mxCell id="JiKzyvnLmBaQL2zN5SzK-7" value="Photo" style="html=1;strokeColor=none;fillColor=#0079D6;labelPosition=center;verticalLabelPosition=middle;verticalAlign=top;align=center;fontSize=12;outlineConnect=0;spacingTop=-6;fontColor=#FFFFFF;sketch=0;shape=mxgraph.sitemap.photo;" vertex="1" parent="7026571954dc6520-1">
          <mxGeometry x="780" y="640" width="60" height="40" as="geometry" />
        </mxCell>
        <mxCell id="JiKzyvnLmBaQL2zN5SzK-16" value="Small description" style="text;html=1;strokeColor=none;fillColor=none;align=center;verticalAlign=middle;whiteSpace=wrap;rounded=0;fontSize=11;fontColor=#000000;" vertex="1" parent="7026571954dc6520-1">
          <mxGeometry x="850" y="645" width="180" height="30" as="geometry" />
        </mxCell>
        <mxCell id="JiKzyvnLmBaQL2zN5SzK-49" value="Small description" style="text;html=1;strokeColor=none;fillColor=none;align=center;verticalAlign=middle;whiteSpace=wrap;rounded=0;fontSize=11;fontColor=#000000;" vertex="1" parent="7026571954dc6520-1">
          <mxGeometry x="850" y="770" width="180" height="30" as="geometry" />
        </mxCell>
        <mxCell id="JiKzyvnLmBaQL2zN5SzK-48" value="Small description" style="text;html=1;strokeColor=none;fillColor=none;align=center;verticalAlign=middle;whiteSpace=wrap;rounded=0;fontSize=11;fontColor=#000000;" vertex="1" parent="7026571954dc6520-1">
          <mxGeometry x="850" y="730" width="180" height="30" as="geometry" />
        </mxCell>
        <mxCell id="JiKzyvnLmBaQL2zN5SzK-47" value="Small description" style="text;html=1;strokeColor=none;fillColor=none;align=center;verticalAlign=middle;whiteSpace=wrap;rounded=0;fontSize=11;fontColor=#000000;" vertex="1" parent="7026571954dc6520-1">
          <mxGeometry x="850" y="690" width="180" height="30" as="geometry" />
        </mxCell>
        <mxCell id="JiKzyvnLmBaQL2zN5SzK-50" value="" style="rounded=0;whiteSpace=wrap;html=1;fontSize=11;fontColor=#000000;strokeColor=#9C9C9C;" vertex="1" parent="7026571954dc6520-1">
          <mxGeometry x="280" y="640" width="410" height="60" as="geometry" />
        </mxCell>
        <mxCell id="JiKzyvnLmBaQL2zN5SzK-51" value="Photo" style="html=1;strokeColor=none;fillColor=#0079D6;labelPosition=center;verticalLabelPosition=middle;verticalAlign=top;align=center;fontSize=12;outlineConnect=0;spacingTop=-6;fontColor=#FFFFFF;sketch=0;shape=mxgraph.sitemap.photo;" vertex="1" parent="7026571954dc6520-1">
          <mxGeometry x="290" y="650" width="60" height="40" as="geometry" />
        </mxCell>
        <mxCell id="JiKzyvnLmBaQL2zN5SzK-52" value="Review" style="text;html=1;strokeColor=none;fillColor=none;align=center;verticalAlign=middle;whiteSpace=wrap;rounded=0;fontSize=11;fontColor=#000000;" vertex="1" parent="7026571954dc6520-1">
          <mxGeometry x="380" y="655" width="180" height="30" as="geometry" />
        </mxCell>
        <mxCell id="JiKzyvnLmBaQL2zN5SzK-53" value="" style="html=1;verticalLabelPosition=bottom;labelBackgroundColor=#ffffff;verticalAlign=top;shadow=0;dashed=0;strokeWidth=2;shape=mxgraph.ios7.misc.star;fillColor=#0080f0;strokeColor=none;sketch=0;fontSize=11;fontColor=#000000;" vertex="1" parent="7026571954dc6520-1">
          <mxGeometry x="550" y="654" width="20" height="16" as="geometry" />
        </mxCell>
        <mxCell id="JiKzyvnLmBaQL2zN5SzK-54" value="" style="html=1;verticalLabelPosition=bottom;labelBackgroundColor=#ffffff;verticalAlign=top;shadow=0;dashed=0;strokeWidth=2;shape=mxgraph.ios7.misc.star;fillColor=#0080f0;strokeColor=none;sketch=0;fontSize=11;fontColor=#000000;" vertex="1" parent="7026571954dc6520-1">
          <mxGeometry x="570" y="654" width="20" height="16" as="geometry" />
        </mxCell>
        <mxCell id="JiKzyvnLmBaQL2zN5SzK-55" value="" style="html=1;verticalLabelPosition=bottom;labelBackgroundColor=#ffffff;verticalAlign=top;shadow=0;dashed=0;strokeWidth=2;shape=mxgraph.ios7.misc.star;fillColor=#0080f0;strokeColor=none;sketch=0;fontSize=11;fontColor=#000000;" vertex="1" parent="7026571954dc6520-1">
          <mxGeometry x="590" y="654" width="20" height="16" as="geometry" />
        </mxCell>
        <mxCell id="JiKzyvnLmBaQL2zN5SzK-58" value="" style="html=1;verticalLabelPosition=bottom;align=center;labelBackgroundColor=#ffffff;verticalAlign=top;strokeWidth=2;strokeColor=#0080F0;shadow=0;dashed=0;shape=mxgraph.ios7.icons.star;fontSize=11;fontColor=#000000;fillColor=#FFFFFF;" vertex="1" parent="7026571954dc6520-1">
          <mxGeometry x="612" y="655" width="15" height="15" as="geometry" />
        </mxCell>
        <mxCell id="JiKzyvnLmBaQL2zN5SzK-8" value="Photo" style="html=1;strokeColor=none;fillColor=#0079D6;labelPosition=center;verticalLabelPosition=middle;verticalAlign=top;align=center;fontSize=12;outlineConnect=0;spacingTop=-6;fontColor=#FFFFFF;sketch=0;shape=mxgraph.sitemap.photo;" vertex="1" parent="1">
          <mxGeometry x="805" y="697" width="60" height="40" as="geometry" />
        </mxCell>
        <mxCell id="JiKzyvnLmBaQL2zN5SzK-9" value="Photo" style="html=1;strokeColor=none;fillColor=#0079D6;labelPosition=center;verticalLabelPosition=middle;verticalAlign=top;align=center;fontSize=12;outlineConnect=0;spacingTop=-6;fontColor=#FFFFFF;sketch=0;shape=mxgraph.sitemap.photo;" vertex="1" parent="1">
          <mxGeometry x="805" y="738" width="60" height="40" as="geometry" />
        </mxCell>
        <mxCell id="JiKzyvnLmBaQL2zN5SzK-10" value="Photo" style="html=1;strokeColor=none;fillColor=#0079D6;labelPosition=center;verticalLabelPosition=middle;verticalAlign=top;align=center;fontSize=12;outlineConnect=0;spacingTop=-6;fontColor=#FFFFFF;sketch=0;shape=mxgraph.sitemap.photo;" vertex="1" parent="1">
          <mxGeometry x="805" y="779" width="60" height="40" as="geometry" />
        </mxCell>
        <mxCell id="JiKzyvnLmBaQL2zN5SzK-11" value="" style="endArrow=none;html=1;rounded=0;strokeColor=#969696;fontSize=11;fontColor=#000000;" edge="1" parent="1">
          <mxGeometry width="50" height="50" relative="1" as="geometry">
            <mxPoint x="810" y="700" as="sourcePoint" />
            <mxPoint x="1070" y="700" as="targetPoint" />
          </mxGeometry>
        </mxCell>
        <mxCell id="JiKzyvnLmBaQL2zN5SzK-12" value="" style="endArrow=none;html=1;rounded=0;strokeColor=#969696;fontSize=11;fontColor=#000000;" edge="1" parent="1">
          <mxGeometry width="50" height="50" relative="1" as="geometry">
            <mxPoint x="810" y="741" as="sourcePoint" />
            <mxPoint x="1070" y="741" as="targetPoint" />
          </mxGeometry>
        </mxCell>
        <mxCell id="JiKzyvnLmBaQL2zN5SzK-13" value="" style="endArrow=none;html=1;rounded=0;strokeColor=#969696;fontSize=11;fontColor=#000000;" edge="1" parent="1">
          <mxGeometry width="50" height="50" relative="1" as="geometry">
            <mxPoint x="810" y="783" as="sourcePoint" />
            <mxPoint x="1070" y="783" as="targetPoint" />
          </mxGeometry>
        </mxCell>
        <mxCell id="JiKzyvnLmBaQL2zN5SzK-14" value="" style="endArrow=none;html=1;rounded=0;strokeColor=#969696;fontSize=11;fontColor=#000000;" edge="1" parent="1">
          <mxGeometry width="50" height="50" relative="1" as="geometry">
            <mxPoint x="811" y="823" as="sourcePoint" />
            <mxPoint x="1071" y="823" as="targetPoint" />
          </mxGeometry>
        </mxCell>
        <mxCell id="JiKzyvnLmBaQL2zN5SzK-59" value="" style="html=1;verticalLabelPosition=bottom;align=center;labelBackgroundColor=#ffffff;verticalAlign=top;strokeWidth=2;strokeColor=#0080F0;shadow=0;dashed=0;shape=mxgraph.ios7.icons.star;fontSize=11;fontColor=#000000;fillColor=#FFFFFF;" vertex="1" parent="1">
          <mxGeometry x="657" y="670" width="15" height="15" as="geometry" />
        </mxCell>
        <mxCell id="JiKzyvnLmBaQL2zN5SzK-60" value="" style="rounded=0;whiteSpace=wrap;html=1;fontSize=11;fontColor=#000000;strokeColor=#9C9C9C;" vertex="1" parent="1">
          <mxGeometry x="305" y="715" width="410" height="60" as="geometry" />
        </mxCell>
        <mxCell id="JiKzyvnLmBaQL2zN5SzK-61" value="Photo" style="html=1;strokeColor=none;fillColor=#0079D6;labelPosition=center;verticalLabelPosition=middle;verticalAlign=top;align=center;fontSize=12;outlineConnect=0;spacingTop=-6;fontColor=#FFFFFF;sketch=0;shape=mxgraph.sitemap.photo;" vertex="1" parent="1">
          <mxGeometry x="315" y="725" width="60" height="40" as="geometry" />
        </mxCell>
        <mxCell id="JiKzyvnLmBaQL2zN5SzK-62" value="Review" style="text;html=1;strokeColor=none;fillColor=none;align=center;verticalAlign=middle;whiteSpace=wrap;rounded=0;fontSize=11;fontColor=#000000;" vertex="1" parent="1">
          <mxGeometry x="405" y="730" width="180" height="30" as="geometry" />
        </mxCell>
        <mxCell id="JiKzyvnLmBaQL2zN5SzK-63" value="" style="html=1;verticalLabelPosition=bottom;labelBackgroundColor=#ffffff;verticalAlign=top;shadow=0;dashed=0;strokeWidth=2;shape=mxgraph.ios7.misc.star;fillColor=#0080f0;strokeColor=none;sketch=0;fontSize=11;fontColor=#000000;" vertex="1" parent="1">
          <mxGeometry x="575" y="729" width="20" height="16" as="geometry" />
        </mxCell>
        <mxCell id="JiKzyvnLmBaQL2zN5SzK-64" value="" style="html=1;verticalLabelPosition=bottom;labelBackgroundColor=#ffffff;verticalAlign=top;shadow=0;dashed=0;strokeWidth=2;shape=mxgraph.ios7.misc.star;fillColor=#0080f0;strokeColor=none;sketch=0;fontSize=11;fontColor=#000000;" vertex="1" parent="1">
          <mxGeometry x="595" y="729" width="20" height="16" as="geometry" />
        </mxCell>
        <mxCell id="JiKzyvnLmBaQL2zN5SzK-65" value="" style="html=1;verticalLabelPosition=bottom;labelBackgroundColor=#ffffff;verticalAlign=top;shadow=0;dashed=0;strokeWidth=2;shape=mxgraph.ios7.misc.star;fillColor=#0080f0;strokeColor=none;sketch=0;fontSize=11;fontColor=#000000;" vertex="1" parent="1">
          <mxGeometry x="615" y="729" width="20" height="16" as="geometry" />
        </mxCell>
        <mxCell id="JiKzyvnLmBaQL2zN5SzK-66" value="" style="html=1;verticalLabelPosition=bottom;align=center;labelBackgroundColor=#ffffff;verticalAlign=top;strokeWidth=2;strokeColor=#0080F0;shadow=0;dashed=0;shape=mxgraph.ios7.icons.star;fontSize=11;fontColor=#000000;fillColor=#FFFFFF;" vertex="1" parent="1">
          <mxGeometry x="637" y="730" width="15" height="15" as="geometry" />
        </mxCell>
        <mxCell id="JiKzyvnLmBaQL2zN5SzK-67" value="" style="html=1;verticalLabelPosition=bottom;align=center;labelBackgroundColor=#ffffff;verticalAlign=top;strokeWidth=2;strokeColor=#0080F0;shadow=0;dashed=0;shape=mxgraph.ios7.icons.star;fontSize=11;fontColor=#000000;fillColor=#FFFFFF;" vertex="1" parent="1">
          <mxGeometry x="657" y="730" width="15" height="15" as="geometry" />
        </mxCell>
        <mxCell id="JiKzyvnLmBaQL2zN5SzK-68" value="" style="rounded=0;whiteSpace=wrap;html=1;fontSize=11;fontColor=#000000;strokeColor=#9C9C9C;" vertex="1" parent="1">
          <mxGeometry x="305" y="774" width="410" height="60" as="geometry" />
        </mxCell>
        <mxCell id="JiKzyvnLmBaQL2zN5SzK-69" value="Photo" style="html=1;strokeColor=none;fillColor=#0079D6;labelPosition=center;verticalLabelPosition=middle;verticalAlign=top;align=center;fontSize=12;outlineConnect=0;spacingTop=-6;fontColor=#FFFFFF;sketch=0;shape=mxgraph.sitemap.photo;" vertex="1" parent="1">
          <mxGeometry x="315" y="784" width="60" height="40" as="geometry" />
        </mxCell>
        <mxCell id="JiKzyvnLmBaQL2zN5SzK-70" value="Review" style="text;html=1;strokeColor=none;fillColor=none;align=center;verticalAlign=middle;whiteSpace=wrap;rounded=0;fontSize=11;fontColor=#000000;" vertex="1" parent="1">
          <mxGeometry x="405" y="789" width="180" height="30" as="geometry" />
        </mxCell>
        <mxCell id="JiKzyvnLmBaQL2zN5SzK-71" value="" style="html=1;verticalLabelPosition=bottom;labelBackgroundColor=#ffffff;verticalAlign=top;shadow=0;dashed=0;strokeWidth=2;shape=mxgraph.ios7.misc.star;fillColor=#0080f0;strokeColor=none;sketch=0;fontSize=11;fontColor=#000000;" vertex="1" parent="1">
          <mxGeometry x="575" y="788" width="20" height="16" as="geometry" />
        </mxCell>
        <mxCell id="JiKzyvnLmBaQL2zN5SzK-72" value="" style="html=1;verticalLabelPosition=bottom;labelBackgroundColor=#ffffff;verticalAlign=top;shadow=0;dashed=0;strokeWidth=2;shape=mxgraph.ios7.misc.star;fillColor=#0080f0;strokeColor=none;sketch=0;fontSize=11;fontColor=#000000;" vertex="1" parent="1">
          <mxGeometry x="595" y="788" width="20" height="16" as="geometry" />
        </mxCell>
        <mxCell id="JiKzyvnLmBaQL2zN5SzK-73" value="" style="html=1;verticalLabelPosition=bottom;labelBackgroundColor=#ffffff;verticalAlign=top;shadow=0;dashed=0;strokeWidth=2;shape=mxgraph.ios7.misc.star;fillColor=#0080f0;strokeColor=none;sketch=0;fontSize=11;fontColor=#000000;" vertex="1" parent="1">
          <mxGeometry x="615" y="788" width="20" height="16" as="geometry" />
        </mxCell>
        <mxCell id="JiKzyvnLmBaQL2zN5SzK-74" value="" style="html=1;verticalLabelPosition=bottom;align=center;labelBackgroundColor=#ffffff;verticalAlign=top;strokeWidth=2;strokeColor=#0080F0;shadow=0;dashed=0;shape=mxgraph.ios7.icons.star;fontSize=11;fontColor=#000000;fillColor=#FFFFFF;" vertex="1" parent="1">
          <mxGeometry x="637" y="789" width="15" height="15" as="geometry" />
        </mxCell>
        <mxCell id="JiKzyvnLmBaQL2zN5SzK-75" value="" style="html=1;verticalLabelPosition=bottom;align=center;labelBackgroundColor=#ffffff;verticalAlign=top;strokeWidth=2;strokeColor=#0080F0;shadow=0;dashed=0;shape=mxgraph.ios7.icons.star;fontSize=11;fontColor=#000000;fillColor=#FFFFFF;" vertex="1" parent="1">
          <mxGeometry x="657" y="789" width="15" height="15" as="geometry" />
        </mxCell>
      </root>
    </mxGraphModel>
  </diagram>
</mxfile>
